<svg width="44" height="30" viewBox="0 0 44 30" fill="none" xmlns="http://www.w3.org/2000/svg">
<path d="M43.5 26.25V3.75C43.5 1.675 41.825 0 39.75 0H4.72498C2.64998 0 0.974976 1.675 0.974976 3.75V26.25C0.974976 28.325 2.64998 30 4.72498 30H39.75C41.825 30 43.5 28.325 43.5 26.25ZM40.225 3.475C41.05 4.3 40.6 5.15 40.15 5.575L30 14.875L39.75 25.025C40.05 25.375 40.25 25.925 39.9 26.3C39.575 26.7 38.825 26.675 38.5 26.425L27.575 17.1L22.225 21.975L16.9 17.1L5.97498 26.425C5.64998 26.675 4.89998 26.7 4.57498 26.3C4.22498 25.925 4.42498 25.375 4.72498 25.025L14.475 14.875L4.32498 5.575C3.87497 5.15 3.42498 4.3 4.24998 3.475C5.07498 2.65 5.92497 3.05 6.62498 3.65L22.225 16.25L37.85 3.65C38.55 3.05 39.4 2.65 40.225 3.475Z" fill="white"/>
</svg>
