<svg width="50" height="49" viewBox="0 0 50 49" fill="none" xmlns="http://www.w3.org/2000/svg">
<path fill-rule="evenodd" clip-rule="evenodd" d="M25 0C11.1875 0 0 11.147 0 24.9095C0 35.932 7.15625 45.2419 17.0938 48.5424C18.3438 48.7604 18.8125 48.0131 18.8125 47.3592C18.8125 46.7676 18.7812 44.806 18.7812 42.7198C12.5 43.8719 10.875 41.1941 10.375 39.793C10.0938 39.0768 8.875 36.8661 7.8125 36.2745C6.9375 35.8074 5.6875 34.6554 7.78125 34.6242C9.75 34.5931 11.1562 36.4302 11.625 37.1775C13.875 40.945 17.4687 39.8864 18.9062 39.2325C19.125 37.6134 19.7812 36.5236 20.5 35.9009C14.9375 35.2781 9.125 33.1297 9.125 23.6018C9.125 20.8929 10.0938 18.651 11.6875 16.9073C11.4375 16.2846 10.5625 13.7314 11.9375 10.3063C11.9375 10.3063 14.0312 9.65244 18.8125 12.8595C20.8125 12.2991 22.9375 12.0188 25.0625 12.0188C27.1875 12.0188 29.3125 12.2991 31.3125 12.8595C36.0938 9.6213 38.1875 10.3063 38.1875 10.3063C39.5625 13.7314 38.6875 16.2846 38.4375 16.9073C40.0312 18.651 41 20.8617 41 23.6018C41 33.1608 35.1562 35.2781 29.5937 35.9009C30.5 36.6793 31.2812 38.1738 31.2812 40.5091C31.2812 43.8408 31.25 46.5185 31.25 47.3592C31.25 48.0131 31.7187 48.7915 32.9688 48.5424C37.9316 46.8729 42.2441 43.6948 45.2993 39.4554C48.3545 35.2159 49.9985 30.1287 50 24.9095C50 11.147 38.8125 0 25 0Z" fill="white"/>
</svg>
