<svg width="50" height="50" viewBox="0 0 50 50" fill="none" xmlns="http://www.w3.org/2000/svg">
<path d="M37.5 20.3125H34.375C34.3738 19.0697 33.8795 17.8781 33.0007 16.9993C32.1219 16.1205 30.9303 15.6262 29.6875 15.625V12.5C31.7587 12.5025 33.7444 13.3264 35.209 14.791C36.6736 16.2556 37.4975 18.2413 37.5 20.3125Z" fill="white"/>
<path d="M43.75 20.3125H40.625C40.6217 17.4127 39.4683 14.6326 37.4179 12.5822C35.3674 10.5317 32.5873 9.37832 29.6875 9.37501V6.25001C33.4159 6.25415 36.9903 7.73706 39.6267 10.3734C42.263 13.0097 43.7459 16.5842 43.75 20.3125ZM31.7703 33.5656L35.2703 30.0656C35.7388 29.597 36.3345 29.2762 36.9836 29.1429C37.6327 29.0096 38.3066 29.0696 38.9219 29.3156L43.1844 31.0219C43.8127 31.2733 44.3512 31.7071 44.7305 32.2675C45.1098 32.8278 45.3126 33.489 45.3125 34.1656V41.9172C45.3136 42.3779 45.2207 42.834 45.0394 43.2576C44.8581 43.6811 44.5923 44.0632 44.2582 44.3805C43.9241 44.6978 43.5288 44.9435 43.0965 45.1027C42.6641 45.2619 42.2038 45.3311 41.7438 45.3063C11.8657 43.4469 5.83128 18.1406 4.71097 8.45001C4.65671 7.97626 4.70336 7.49638 4.84786 7.04195C4.99236 6.58751 5.23144 6.16882 5.54936 5.81341C5.86728 5.458 6.25684 5.17393 6.69243 4.97987C7.12801 4.78582 7.59974 4.68618 8.07659 4.68751H15.6907C16.3673 4.68749 17.0285 4.89022 17.5888 5.26954C18.1492 5.64887 18.583 6.18739 18.8344 6.81564L20.5391 11.0781C20.7851 11.6934 20.8452 12.3673 20.7119 13.0164C20.5785 13.6655 20.2577 14.2612 19.7891 14.7297L16.2891 18.2297C16.2891 18.2297 18.2297 31.8734 31.7703 33.5656Z" fill="white"/>
</svg>
