<svg width="50" height="49" viewBox="0 0 50 49" fill="none" xmlns="http://www.w3.org/2000/svg">
<path d="M25 0C11.1938 0 0 10.8781 0 24.295C0 37.7119 11.1938 48.59 25 48.59C38.8062 48.59 50 37.7119 50 24.295C50 10.8781 38.8062 0 25 0ZM37.2792 16.6441L33.175 35.4322C32.8729 36.7644 32.0562 37.0884 30.9167 36.4607L24.6667 31.9864L21.6542 34.8087C21.5066 34.9944 21.3172 35.1447 21.1005 35.2483C20.8838 35.3518 20.6456 35.4057 20.4042 35.4059H20.3937L20.8375 29.2228L32.4208 19.0554C32.9208 18.6242 32.3083 18.3792 31.6437 18.8104L17.3333 27.5688L11.1667 25.698C9.83333 25.2871 9.79583 24.4023 11.4479 23.7666L35.5438 14.741C36.6646 14.3442 37.6396 15.0001 37.2771 16.6461L37.2792 16.6441Z" fill="white"/>
</svg>
