<svg width="39" height="40" viewBox="0 0 39 40" fill="none" xmlns="http://www.w3.org/2000/svg">
<path d="M6.36889 1.8088C14.8836 -0.602933 23.8446 -0.602933 32.3593 1.8088C35.2177 2.61821 37.4008 5.10375 37.9683 8.19461C38.9736 13.672 38.9736 19.3057 37.9683 24.7831C37.4009 27.874 35.2178 30.3594 32.3593 31.1696C32.1435 31.2309 31.9272 31.2905 31.7105 31.3487C31.2819 31.4633 30.9792 31.877 30.9792 32.3481V38.8955C30.9792 39.0557 30.8914 39.2017 30.755 39.2692C30.6186 39.3367 30.4572 39.314 30.3422 39.2104L24.0715 33.572C23.5429 33.097 22.8631 32.8544 22.1724 32.8953C16.8521 33.2109 11.5183 32.6283 6.36889 31.1696C3.51045 30.3594 1.32739 27.874 0.760104 24.7831C-0.24523 19.3057 -0.24523 13.672 0.760104 8.19461C1.32754 5.10375 3.51059 2.61821 6.36889 1.8088Z" fill="white"/>
<path fill-rule="evenodd" clip-rule="evenodd" d="M28.8032 8.35136C28.8032 7.72612 28.3256 7.21924 27.7365 7.21924H11.7338C11.1446 7.21924 10.667 7.72612 10.667 8.35136V12.314C10.667 12.9392 11.1446 13.4461 11.7338 13.4461H27.7365C28.3256 13.4461 28.8032 12.9392 28.8032 12.314V8.35136ZM21.8718 26.4667C22.461 26.4667 22.9386 25.9599 22.9386 25.3345V14.579C22.9386 13.6172 24.2455 13.4461 23.6562 13.4461H16.0469C15.4576 13.4461 16.5 13.5 16.5376 14.579V25.3345C16.5376 25.9599 17.0152 26.4667 17.6045 26.4667H21.8718Z" fill="#090732"/>
</svg>
