<svg width="50" height="50" viewBox="0 0 50 50" fill="none" xmlns="http://www.w3.org/2000/svg">
<g clip-path="url(#clip0_901_21506)">
<path d="M40.0015 4.7793H9.3299V37.3288H40.0015V4.7793Z" fill="white"/>
<path fill-rule="evenodd" clip-rule="evenodd" d="M36.0042 10.4435C36.0042 9.66192 35.4071 9.02832 34.6707 9.02832H14.6674C13.9309 9.02832 13.3339 9.66192 13.3339 10.4435V15.3967C13.3339 16.1783 13.9309 16.8119 14.6674 16.8119H19.3386C20.075 16.8119 20.6721 17.4455 20.6721 18.2271V31.6645C20.6721 32.4461 21.2692 33.0797 22.0057 33.0797H27.3398C28.0764 33.0797 28.6734 32.4461 28.6734 31.6645V18.2271C28.6734 17.4455 29.2704 16.8119 30.0069 16.8119H34.6707C35.4071 16.8119 36.0042 16.1783 36.0042 15.3967V10.4435Z" fill="#090732"/>
<path d="M7.96099 2.261C18.6044 -0.753667 29.8056 -0.753667 40.449 2.261C44.022 3.27277 46.7509 6.37968 47.4602 10.2433C48.7168 17.09 48.7168 24.1321 47.4602 30.9789C46.7511 34.8424 44.0221 37.9493 40.449 38.962C40.1792 39.0386 39.9088 39.1132 39.638 39.1858C39.1023 39.3291 38.7238 39.8462 38.7238 40.4351V48.6194C38.7238 48.8196 38.6141 49.0021 38.4436 49.0865C38.2732 49.1709 38.0713 49.1424 37.9277 49.013L30.0892 41.965C29.4286 41.3712 28.5787 41.0681 27.7154 41.1191C21.065 41.5136 14.3978 40.7854 7.96099 38.962C4.38794 37.9493 1.65912 34.8424 0.950008 30.9789C-0.306659 24.1321 -0.306659 17.09 0.950008 10.2433C1.6593 6.37968 4.38812 3.27277 7.96099 2.261ZM28.5609 30.917C28.8263 30.917 29.0448 30.6845 29.0448 30.4018V20.611H38.2399C38.5053 20.611 38.7238 20.3785 38.7238 20.0958V10.8202C38.7238 10.5377 38.5053 10.305 38.2399 10.305H10.1708C9.90519 10.305 9.68673 10.5377 9.68673 10.8202V20.0958C9.68673 20.3785 9.90519 20.611 10.1708 20.611H19.3659V30.4018C19.3659 30.6845 19.5842 30.917 19.8497 30.917H28.5609Z" fill="white"/>
<path fill-rule="evenodd" clip-rule="evenodd" d="M36.0042 10.4396C36.0042 9.65802 35.4071 9.02441 34.6707 9.02441H14.6674C13.9309 9.02441 13.3339 9.65802 13.3339 10.4396V15.3928C13.3339 16.1744 13.9309 16.808 14.6674 16.808H34.6707C35.4071 16.808 36.0042 16.1744 36.0042 15.3928V10.4396ZM27.3398 33.0838C28.0764 33.0838 28.6734 32.4502 28.6734 31.6685V18.2242C28.6734 17.4426 28.0764 16.8091 27.3398 16.8091H22.0057C21.2692 16.8091 20.6721 17.4426 20.6721 18.2242V31.6685C20.6721 32.4502 21.2692 33.0838 22.0057 33.0838H27.3398Z" fill="#090732"/>
</g>
<defs>
<clipPath id="clip0_901_21506">
<rect width="50" height="50" fill="white"/>
</clipPath>
</defs>
</svg>
