<svg width="19" height="20" viewBox="0 0 19 20" fill="none" xmlns="http://www.w3.org/2000/svg">
<path fill-rule="evenodd" clip-rule="evenodd" d="M18.8032 1.35136C18.8032 0.72612 18.3256 0.219238 17.7365 0.219238H1.73384C1.14461 0.219238 0.666992 0.72612 0.666992 1.35136V5.31397C0.666992 5.9392 1.14461 6.44614 1.73384 6.44614H17.7365C18.3256 6.44614 18.8032 5.9392 18.8032 5.31397V1.35136ZM11.8718 19.4667C12.461 19.4667 12.9386 18.9599 12.9386 18.3345V7.57904C12.9386 6.61719 14.2455 6.44614 13.6562 6.44614H6.04688C5.45764 6.44614 6.5 6.5 6.53761 7.57904V18.3345C6.53761 18.9599 7.01522 19.4667 7.60445 19.4667H11.8718Z" fill="#090732"/>
</svg>
