<svg width="50" height="49" viewBox="0 0 50 49" fill="none" xmlns="http://www.w3.org/2000/svg">
<path d="M32.674 0H17.326C3.32021 0 0 3.22658 0 16.8374V31.7526C0 45.3634 3.32021 48.59 17.326 48.59H32.674C46.6798 48.59 50 45.3634 50 31.7526V16.8374C50 3.22658 46.647 0 32.674 0ZM40.3644 34.6618H36.7348C35.3598 34.6618 34.9364 33.602 32.463 31.1665C30.3147 29.1425 29.3631 28.8737 28.8335 28.8737C28.0851 28.8737 27.8726 29.0787 27.8726 30.0763V33.2634C27.8726 34.1182 27.596 34.6315 25.268 34.6315C21.4181 34.6315 17.1463 32.3691 14.1511 28.154C9.63407 21.9772 8.39818 17.3507 8.39818 16.3941C8.39818 15.8793 8.60911 15.398 9.62626 15.398H13.2636C14.1839 15.398 14.5339 15.8095 14.8917 16.7661C16.6901 21.8117 19.6853 26.2317 20.9212 26.2317C21.3775 26.2317 21.5884 26.0267 21.5884 24.8955V19.6844C21.4493 17.2808 20.1478 17.0743 20.1478 16.221C20.1478 15.8095 20.4978 15.398 21.0587 15.398H26.7789C27.5523 15.398 27.8366 15.8095 27.8366 16.6947V23.7249C27.8366 24.4841 28.1866 24.7528 28.3976 24.7528C28.8538 24.7528 29.2444 24.4841 30.0897 23.6611C32.7021 20.8141 34.5739 16.4244 34.5739 16.4244C34.8177 15.9097 35.2411 15.4284 36.1614 15.4284H39.7988C40.8894 15.4284 41.1331 15.9735 40.8894 16.7327C40.4331 18.7886 35.9817 24.894 35.9817 24.894C35.5989 25.5105 35.452 25.7792 35.9817 26.4671C36.3723 26.9818 37.6426 28.0492 38.4879 29.0058C40.0425 30.7216 41.2378 32.161 41.5565 33.1571C41.9143 34.1456 41.3862 34.6603 40.3597 34.6603L40.3644 34.6618Z" fill="white"/>
</svg>
