<svg width="50" height="49" viewBox="0 0 50 49" fill="none" xmlns="http://www.w3.org/2000/svg">
<path d="M46.2607 11.2362C38.7813 -0.000370979 23.5109 -3.34096 11.6685 3.64391C0.137786 10.6288 -3.60191 25.8133 3.87748 37.0498L4.50076 37.9609L2.00763 47.0716L11.3569 44.6421L12.2918 45.2494C16.3431 47.3753 20.7061 48.59 25.0691 48.59C29.7437 48.59 34.4183 47.3753 38.4697 44.9457C50.0004 37.6572 53.4284 22.7764 46.2607 11.2362ZM39.7162 34.6203C38.4697 36.4424 36.9115 37.6572 34.73 37.9609C33.4834 37.9609 31.9252 38.5683 25.6924 36.1387C20.3945 33.7092 16.0315 29.7612 12.9151 25.2059C11.0452 23.0801 10.1103 20.3469 9.79867 17.6136C9.79867 15.1841 10.7336 13.0583 12.2918 11.5398C12.9151 10.9325 13.5384 10.6288 14.1616 10.6288H15.7198C16.3431 10.6288 16.9664 10.6288 17.2781 11.8435C17.9013 13.362 19.4595 17.0063 19.4595 17.31C19.7712 17.6136 19.7712 18.221 19.4595 18.5247C19.7712 19.1321 19.4595 19.7395 19.1479 20.0432C18.8363 20.3469 18.5246 20.9542 18.213 21.2579C17.5897 21.5616 17.2781 22.169 17.5897 22.7764C18.8363 24.5985 20.3945 26.4207 21.9527 27.9391C23.8225 29.4576 25.6924 30.6723 27.8739 31.5834C28.4971 31.8871 29.1204 31.8871 29.4321 31.2797C29.7437 30.6723 31.3019 29.1539 31.9252 28.5465C32.5485 27.9391 32.8601 27.9391 33.4834 28.2428L38.4697 30.6723C39.0929 30.976 39.7162 31.2797 40.0279 31.5834C40.3395 32.4945 40.3395 33.7092 39.7162 34.6203Z" fill="white"/>
</svg>
